<mxfile host="Electron" modified="2024-06-28T00:45:08.216Z" agent="Mozilla/5.0 (Windows NT 10.0; Win64; x64) AppleWebKit/537.36 (KHTML, like Gecko) draw.io/24.4.0 Chrome/120.0.6099.109 Electron/28.1.0 Safari/537.36" etag="p5liRWwqa3Lx_5raVcyJ" version="24.4.0" type="device">
  <diagram name="Page-1" id="cGBUmtEtpxzNX7Iw0PJk">
    <mxGraphModel dx="1687" dy="993" grid="1" gridSize="10" guides="1" tooltips="1" connect="1" arrows="1" fold="1" page="0" pageScale="1" pageWidth="850" pageHeight="1100" math="0" shadow="0">
      <root>
        <mxCell id="0" />
        <mxCell id="1" parent="0" />
        <mxCell id="977sF4-tRaXHOjKDGZVi-1" value="" style="rounded=0;whiteSpace=wrap;html=1;fillColor=none;" vertex="1" parent="1">
          <mxGeometry x="160" y="80" width="520" height="680" as="geometry" />
        </mxCell>
        <mxCell id="977sF4-tRaXHOjKDGZVi-2" value="" style="whiteSpace=wrap;html=1;aspect=fixed;" vertex="1" parent="1">
          <mxGeometry x="200" y="280" width="80" height="80" as="geometry" />
        </mxCell>
        <mxCell id="977sF4-tRaXHOjKDGZVi-3" value="" style="whiteSpace=wrap;html=1;aspect=fixed;" vertex="1" parent="1">
          <mxGeometry x="320" y="280" width="80" height="80" as="geometry" />
        </mxCell>
        <mxCell id="977sF4-tRaXHOjKDGZVi-4" value="" style="whiteSpace=wrap;html=1;aspect=fixed;" vertex="1" parent="1">
          <mxGeometry x="440" y="280" width="80" height="80" as="geometry" />
        </mxCell>
        <mxCell id="977sF4-tRaXHOjKDGZVi-5" value="" style="whiteSpace=wrap;html=1;aspect=fixed;" vertex="1" parent="1">
          <mxGeometry x="560" y="280" width="80" height="80" as="geometry" />
        </mxCell>
        <mxCell id="977sF4-tRaXHOjKDGZVi-6" value="" style="whiteSpace=wrap;html=1;aspect=fixed;" vertex="1" parent="1">
          <mxGeometry x="200" y="400" width="80" height="80" as="geometry" />
        </mxCell>
        <mxCell id="977sF4-tRaXHOjKDGZVi-7" value="" style="whiteSpace=wrap;html=1;aspect=fixed;" vertex="1" parent="1">
          <mxGeometry x="320" y="400" width="80" height="80" as="geometry" />
        </mxCell>
        <mxCell id="977sF4-tRaXHOjKDGZVi-8" value="" style="whiteSpace=wrap;html=1;aspect=fixed;" vertex="1" parent="1">
          <mxGeometry x="440" y="400" width="80" height="80" as="geometry" />
        </mxCell>
        <mxCell id="977sF4-tRaXHOjKDGZVi-9" value="" style="whiteSpace=wrap;html=1;aspect=fixed;" vertex="1" parent="1">
          <mxGeometry x="560" y="400" width="80" height="80" as="geometry" />
        </mxCell>
        <mxCell id="977sF4-tRaXHOjKDGZVi-10" value="" style="whiteSpace=wrap;html=1;aspect=fixed;" vertex="1" parent="1">
          <mxGeometry x="200" y="520" width="80" height="80" as="geometry" />
        </mxCell>
        <mxCell id="977sF4-tRaXHOjKDGZVi-11" value="" style="whiteSpace=wrap;html=1;aspect=fixed;" vertex="1" parent="1">
          <mxGeometry x="320" y="520" width="80" height="80" as="geometry" />
        </mxCell>
        <mxCell id="977sF4-tRaXHOjKDGZVi-12" value="" style="whiteSpace=wrap;html=1;aspect=fixed;" vertex="1" parent="1">
          <mxGeometry x="440" y="520" width="80" height="80" as="geometry" />
        </mxCell>
        <mxCell id="977sF4-tRaXHOjKDGZVi-13" value="" style="whiteSpace=wrap;html=1;aspect=fixed;" vertex="1" parent="1">
          <mxGeometry x="560" y="520" width="80" height="80" as="geometry" />
        </mxCell>
        <mxCell id="977sF4-tRaXHOjKDGZVi-14" value="" style="whiteSpace=wrap;html=1;aspect=fixed;" vertex="1" parent="1">
          <mxGeometry x="200" y="640" width="80" height="80" as="geometry" />
        </mxCell>
        <mxCell id="977sF4-tRaXHOjKDGZVi-15" value="" style="whiteSpace=wrap;html=1;aspect=fixed;" vertex="1" parent="1">
          <mxGeometry x="320" y="640" width="80" height="80" as="geometry" />
        </mxCell>
        <mxCell id="977sF4-tRaXHOjKDGZVi-16" value="" style="whiteSpace=wrap;html=1;aspect=fixed;" vertex="1" parent="1">
          <mxGeometry x="440" y="640" width="80" height="80" as="geometry" />
        </mxCell>
        <mxCell id="977sF4-tRaXHOjKDGZVi-17" value="" style="whiteSpace=wrap;html=1;aspect=fixed;" vertex="1" parent="1">
          <mxGeometry x="560" y="640" width="80" height="80" as="geometry" />
        </mxCell>
        <mxCell id="977sF4-tRaXHOjKDGZVi-18" value="" style="whiteSpace=wrap;html=1;aspect=fixed;" vertex="1" parent="1">
          <mxGeometry x="200" y="120" width="80" height="80" as="geometry" />
        </mxCell>
        <mxCell id="977sF4-tRaXHOjKDGZVi-19" value="" style="ellipse;whiteSpace=wrap;html=1;aspect=fixed;" vertex="1" parent="1">
          <mxGeometry x="560" y="120" width="80" height="80" as="geometry" />
        </mxCell>
        <mxCell id="977sF4-tRaXHOjKDGZVi-20" value="" style="shape=process;whiteSpace=wrap;html=1;backgroundOutline=1;" vertex="1" parent="1">
          <mxGeometry x="370" y="130" width="120" height="60" as="geometry" />
        </mxCell>
        <mxCell id="977sF4-tRaXHOjKDGZVi-21" value="" style="rounded=0;whiteSpace=wrap;html=1;fillColor=none;" vertex="1" parent="1">
          <mxGeometry x="760" y="80" width="520" height="680" as="geometry" />
        </mxCell>
        <mxCell id="977sF4-tRaXHOjKDGZVi-22" value="7" style="whiteSpace=wrap;html=1;aspect=fixed;" vertex="1" parent="1">
          <mxGeometry x="800" y="280" width="80" height="80" as="geometry" />
        </mxCell>
        <mxCell id="977sF4-tRaXHOjKDGZVi-23" value="8" style="whiteSpace=wrap;html=1;aspect=fixed;" vertex="1" parent="1">
          <mxGeometry x="920" y="280" width="80" height="80" as="geometry" />
        </mxCell>
        <mxCell id="977sF4-tRaXHOjKDGZVi-24" value="9" style="whiteSpace=wrap;html=1;aspect=fixed;" vertex="1" parent="1">
          <mxGeometry x="1040" y="280" width="80" height="80" as="geometry" />
        </mxCell>
        <mxCell id="977sF4-tRaXHOjKDGZVi-25" value="*" style="whiteSpace=wrap;html=1;aspect=fixed;" vertex="1" parent="1">
          <mxGeometry x="1160" y="280" width="80" height="80" as="geometry" />
        </mxCell>
        <mxCell id="977sF4-tRaXHOjKDGZVi-26" value="4" style="whiteSpace=wrap;html=1;aspect=fixed;" vertex="1" parent="1">
          <mxGeometry x="800" y="400" width="80" height="80" as="geometry" />
        </mxCell>
        <mxCell id="977sF4-tRaXHOjKDGZVi-27" value="5" style="whiteSpace=wrap;html=1;aspect=fixed;" vertex="1" parent="1">
          <mxGeometry x="920" y="400" width="80" height="80" as="geometry" />
        </mxCell>
        <mxCell id="977sF4-tRaXHOjKDGZVi-28" value="6" style="whiteSpace=wrap;html=1;aspect=fixed;" vertex="1" parent="1">
          <mxGeometry x="1040" y="400" width="80" height="80" as="geometry" />
        </mxCell>
        <mxCell id="977sF4-tRaXHOjKDGZVi-29" value="-" style="whiteSpace=wrap;html=1;aspect=fixed;" vertex="1" parent="1">
          <mxGeometry x="1160" y="400" width="80" height="80" as="geometry" />
        </mxCell>
        <mxCell id="977sF4-tRaXHOjKDGZVi-30" value="1" style="whiteSpace=wrap;html=1;aspect=fixed;" vertex="1" parent="1">
          <mxGeometry x="800" y="520" width="80" height="80" as="geometry" />
        </mxCell>
        <mxCell id="977sF4-tRaXHOjKDGZVi-31" value="2" style="whiteSpace=wrap;html=1;aspect=fixed;" vertex="1" parent="1">
          <mxGeometry x="920" y="520" width="80" height="80" as="geometry" />
        </mxCell>
        <mxCell id="977sF4-tRaXHOjKDGZVi-32" value="3" style="whiteSpace=wrap;html=1;aspect=fixed;" vertex="1" parent="1">
          <mxGeometry x="1040" y="520" width="80" height="80" as="geometry" />
        </mxCell>
        <mxCell id="977sF4-tRaXHOjKDGZVi-33" value="+" style="whiteSpace=wrap;html=1;aspect=fixed;" vertex="1" parent="1">
          <mxGeometry x="1160" y="520" width="80" height="80" as="geometry" />
        </mxCell>
        <mxCell id="977sF4-tRaXHOjKDGZVi-34" value="/" style="whiteSpace=wrap;html=1;aspect=fixed;" vertex="1" parent="1">
          <mxGeometry x="800" y="640" width="80" height="80" as="geometry" />
        </mxCell>
        <mxCell id="977sF4-tRaXHOjKDGZVi-35" value="0" style="whiteSpace=wrap;html=1;aspect=fixed;" vertex="1" parent="1">
          <mxGeometry x="920" y="640" width="80" height="80" as="geometry" />
        </mxCell>
        <mxCell id="977sF4-tRaXHOjKDGZVi-36" value="." style="whiteSpace=wrap;html=1;aspect=fixed;" vertex="1" parent="1">
          <mxGeometry x="1040" y="640" width="80" height="80" as="geometry" />
        </mxCell>
        <mxCell id="977sF4-tRaXHOjKDGZVi-37" value="ENT" style="whiteSpace=wrap;html=1;aspect=fixed;" vertex="1" parent="1">
          <mxGeometry x="1160" y="640" width="80" height="80" as="geometry" />
        </mxCell>
        <mxCell id="977sF4-tRaXHOjKDGZVi-38" value="Mode" style="whiteSpace=wrap;html=1;aspect=fixed;" vertex="1" parent="1">
          <mxGeometry x="800" y="120" width="80" height="80" as="geometry" />
        </mxCell>
        <mxCell id="977sF4-tRaXHOjKDGZVi-39" value="" style="ellipse;whiteSpace=wrap;html=1;aspect=fixed;" vertex="1" parent="1">
          <mxGeometry x="1160" y="120" width="80" height="80" as="geometry" />
        </mxCell>
        <mxCell id="977sF4-tRaXHOjKDGZVi-40" value="Numpad" style="shape=process;whiteSpace=wrap;html=1;backgroundOutline=1;" vertex="1" parent="1">
          <mxGeometry x="970" y="130" width="120" height="60" as="geometry" />
        </mxCell>
        <mxCell id="977sF4-tRaXHOjKDGZVi-41" value="" style="rounded=0;whiteSpace=wrap;html=1;fillColor=none;" vertex="1" parent="1">
          <mxGeometry x="160" y="840" width="520" height="680" as="geometry" />
        </mxCell>
        <mxCell id="977sF4-tRaXHOjKDGZVi-42" value="" style="whiteSpace=wrap;html=1;aspect=fixed;" vertex="1" parent="1">
          <mxGeometry x="200" y="1040" width="80" height="80" as="geometry" />
        </mxCell>
        <mxCell id="977sF4-tRaXHOjKDGZVi-43" value="" style="whiteSpace=wrap;html=1;aspect=fixed;" vertex="1" parent="1">
          <mxGeometry x="320" y="1040" width="80" height="80" as="geometry" />
        </mxCell>
        <mxCell id="977sF4-tRaXHOjKDGZVi-44" value="" style="whiteSpace=wrap;html=1;aspect=fixed;" vertex="1" parent="1">
          <mxGeometry x="440" y="1040" width="80" height="80" as="geometry" />
        </mxCell>
        <mxCell id="977sF4-tRaXHOjKDGZVi-45" value="" style="whiteSpace=wrap;html=1;aspect=fixed;" vertex="1" parent="1">
          <mxGeometry x="560" y="1040" width="80" height="80" as="geometry" />
        </mxCell>
        <mxCell id="977sF4-tRaXHOjKDGZVi-46" value="" style="whiteSpace=wrap;html=1;aspect=fixed;" vertex="1" parent="1">
          <mxGeometry x="200" y="1160" width="80" height="80" as="geometry" />
        </mxCell>
        <mxCell id="977sF4-tRaXHOjKDGZVi-47" value="" style="whiteSpace=wrap;html=1;aspect=fixed;" vertex="1" parent="1">
          <mxGeometry x="320" y="1160" width="80" height="80" as="geometry" />
        </mxCell>
        <mxCell id="977sF4-tRaXHOjKDGZVi-48" value="" style="whiteSpace=wrap;html=1;aspect=fixed;" vertex="1" parent="1">
          <mxGeometry x="440" y="1160" width="80" height="80" as="geometry" />
        </mxCell>
        <mxCell id="977sF4-tRaXHOjKDGZVi-49" value="" style="whiteSpace=wrap;html=1;aspect=fixed;" vertex="1" parent="1">
          <mxGeometry x="560" y="1160" width="80" height="80" as="geometry" />
        </mxCell>
        <mxCell id="977sF4-tRaXHOjKDGZVi-50" value="" style="whiteSpace=wrap;html=1;aspect=fixed;" vertex="1" parent="1">
          <mxGeometry x="200" y="1280" width="80" height="80" as="geometry" />
        </mxCell>
        <mxCell id="977sF4-tRaXHOjKDGZVi-51" value="" style="whiteSpace=wrap;html=1;aspect=fixed;" vertex="1" parent="1">
          <mxGeometry x="320" y="1280" width="80" height="80" as="geometry" />
        </mxCell>
        <mxCell id="977sF4-tRaXHOjKDGZVi-52" value="" style="whiteSpace=wrap;html=1;aspect=fixed;" vertex="1" parent="1">
          <mxGeometry x="440" y="1280" width="80" height="80" as="geometry" />
        </mxCell>
        <mxCell id="977sF4-tRaXHOjKDGZVi-53" value="" style="whiteSpace=wrap;html=1;aspect=fixed;" vertex="1" parent="1">
          <mxGeometry x="560" y="1280" width="80" height="80" as="geometry" />
        </mxCell>
        <mxCell id="977sF4-tRaXHOjKDGZVi-54" value="" style="whiteSpace=wrap;html=1;aspect=fixed;" vertex="1" parent="1">
          <mxGeometry x="200" y="1400" width="80" height="80" as="geometry" />
        </mxCell>
        <mxCell id="977sF4-tRaXHOjKDGZVi-55" value="" style="whiteSpace=wrap;html=1;aspect=fixed;" vertex="1" parent="1">
          <mxGeometry x="320" y="1400" width="80" height="80" as="geometry" />
        </mxCell>
        <mxCell id="977sF4-tRaXHOjKDGZVi-56" value="" style="whiteSpace=wrap;html=1;aspect=fixed;" vertex="1" parent="1">
          <mxGeometry x="440" y="1400" width="80" height="80" as="geometry" />
        </mxCell>
        <mxCell id="977sF4-tRaXHOjKDGZVi-57" value="" style="whiteSpace=wrap;html=1;aspect=fixed;" vertex="1" parent="1">
          <mxGeometry x="560" y="1400" width="80" height="80" as="geometry" />
        </mxCell>
        <mxCell id="977sF4-tRaXHOjKDGZVi-58" value="" style="whiteSpace=wrap;html=1;aspect=fixed;" vertex="1" parent="1">
          <mxGeometry x="200" y="880" width="80" height="80" as="geometry" />
        </mxCell>
        <mxCell id="977sF4-tRaXHOjKDGZVi-59" value="" style="ellipse;whiteSpace=wrap;html=1;aspect=fixed;" vertex="1" parent="1">
          <mxGeometry x="560" y="880" width="80" height="80" as="geometry" />
        </mxCell>
        <mxCell id="977sF4-tRaXHOjKDGZVi-60" value="" style="shape=process;whiteSpace=wrap;html=1;backgroundOutline=1;" vertex="1" parent="1">
          <mxGeometry x="370" y="890" width="120" height="60" as="geometry" />
        </mxCell>
      </root>
    </mxGraphModel>
  </diagram>
</mxfile>
